<?xml version="1.0" encoding="UTF-8" standalone="no"?>
<!-- Generator: Adobe Illustrator 16.0.0, SVG Export Plug-In . SVG Version: 6.00 Build 0)  -->

<svg
   xmlns:dc="http://purl.org/dc/elements/1.1/"
   xmlns:cc="http://creativecommons.org/ns#"
   xmlns:rdf="http://www.w3.org/1999/02/22-rdf-syntax-ns#"
   xmlns:svg="http://www.w3.org/2000/svg"
   xmlns="http://www.w3.org/2000/svg"
   xmlns:sodipodi="http://sodipodi.sourceforge.net/DTD/sodipodi-0.dtd"
   xmlns:inkscape="http://www.inkscape.org/namespaces/inkscape"
   id="svg2"
   version="1.1"
   inkscape:version="0.48.4 r9939"
   width="100%"
   height="100%"
   sodipodi:docname="login.svg">
  <metadata
     id="metadata14">
    <rdf:RDF>
      <cc:Work
         rdf:about="">
        <dc:format>image/svg+xml</dc:format>
        <dc:type
           rdf:resource="http://purl.org/dc/dcmitype/StillImage" />
      </cc:Work>
    </rdf:RDF>
  </metadata>
  <defs
     id="defs12" />
  <sodipodi:namedview
     pagecolor="#ffffff"
     bordercolor="#666666"
     borderopacity="1"
     objecttolerance="10"
     gridtolerance="10"
     guidetolerance="10"
     inkscape:pageopacity="0"
     inkscape:pageshadow="2"
     inkscape:window-width="1920"
     inkscape:window-height="1030"
     id="namedview10"
     showgrid="false"
     inkscape:zoom="1.2685914"
     inkscape:cx="372.09967"
     inkscape:cy="868.50126"
     inkscape:window-x="0"
     inkscape:window-y="0"
     inkscape:window-maximized="1"
     inkscape:current-layer="svg2" />
  <g
     id="facebook"
     transform="matrix(0.98494389,0,0,0.98494389,-3.8227193,-4.7243234)">
    <path
       style="fill:#ffcc00;fill-opacity:1;stroke:none"
       d="m 142.4536,212.2473 -0.0793,-49.88618 -16.83757,-0.081 -16.83756,-0.081 0,-19.26259 0,-19.26258 16.91588,0 16.91588,0 0,-17.00611 c 0,-12.922666 0.10822,-17.868242 0.45072,-20.596645 0.71714,-5.712922 1.9534,-10.506616 3.8747,-15.024431 6.59712,-15.512777 19.83291,-24.836244 38.27753,-26.963217 4.175,-0.481447 23.01324,-0.182015 30.38593,0.482982 2.84281,0.256414 5.48592,0.469288 5.87357,0.473054 l 0.70483,0.0068 0,17.367391 0,17.367391 -13.39174,0.112591 c -11.47601,0.09649 -13.6529,0.189082 -15.2174,0.647273 -6.41792,1.879608 -9.56118,5.38544 -10.69308,11.926513 -0.3851,2.225416 -0.48142,5.625532 -0.48142,16.994188 l 0,14.21217 19.27127,0 19.27128,0 -0.15787,0.70482 c -0.13601,0.60721 -4.86618,37.21708 -4.86618,37.66251 0,0.0898 -7.54166,0.16328 -16.75925,0.16328 l -16.75925,0 0,49.9645 0,49.96449 -19.89086,0 -19.89086,0 -0.0793,-49.88618 0,0 z"
       id="path5"
       inkscape:connector-curvature="0" />
  </g>
  <g
     id="google"
     transform="matrix(1.0058756,0,0,1.0058756,32.418649,16.307783)">
    <path
       style="fill:#ffcc00;fill-opacity:1;stroke:none"
       d="M 59.305602,235.17313 C 43.719789,231.0908 34.710594,225.08367 28.602606,214.70112 c -7.479169,-12.71329 -5.385893,-27.68173 5.576265,-39.87429 10.473174,-11.64869 28.327981,-19.03737 50.768724,-21.00911 14.664368,-1.28849 14.272317,-0.86335 9.377476,-10.16858 -4.278916,-8.13437 -4.394681,-9.37156 -1.832259,-19.58104 0.944019,-3.76127 0.806771,-3.88643 -3.350042,-3.05507 -6.696463,1.33929 -21.424624,-1.59638 -29.189447,-5.81815 C 51.025972,110.34104 42.762602,99.912715 39.818276,89.784595 33.496331,68.037878 46.190156,43.611549 69.453836,32.75779 84.157896,25.897584 95.350115,24.338297 129.59723,24.378715 l 30.69038,0.03628 -7.7186,4.917346 c -6.74081,4.294413 -8.8641,4.917346 -16.761,4.917346 l -9.0424,0 6.714,7.430366 c 12.16988,13.468343 15.93584,28.278128 11.27262,44.330025 -2.11817,7.291251 -3.85551,9.76261 -13.26529,18.869842 -13.18692,12.76292 -15.76009,16.44475 -15.77214,22.56765 -0.0101,5.1901 2.58218,8.18909 17.73861,20.52089 18.44024,15.00366 25.0681,28.04555 22.17061,43.62601 -2.11988,11.39905 -5.46674,17.76374 -13.68503,26.02461 -17.44042,17.53083 -53.487046,25.18833 -82.633388,17.5541 l 0,0 z m 60.284788,-11.279 c 8.16012,-3.60833 14.19745,-9.05356 16.81133,-15.16261 2.25041,-5.25953 2.56602,-16.99015 0.5965,-22.1704 -2.04782,-5.38617 -10.62211,-14.23354 -20.90639,-21.57226 l -9.22555,-6.58322 -11.502596,0.9102 c -21.161461,1.67447 -35.275549,7.39182 -42.888926,17.37347 -3.051964,4.00134 -4.005974,7.01076 -4.454262,14.05098 -1.233578,19.37297 11.823276,31.954 37.963557,36.58 8.096191,1.43278 26.969357,-0.49133 33.606337,-3.42616 l 0,0 z M 107.97984,112.26177 c 15.70874,-7.13549 19.7494,-26.933182 10.52753,-51.580857 -6.31924,-16.88968 -17.55414,-26.431275 -31.121912,-26.431275 -8.112424,0 -13.09316,2.139747 -18.64886,8.011664 -5.199222,5.495117 -7.01101,10.945225 -7.075288,21.28345 -0.217362,34.959183 22.953754,59.330148 46.31853,48.717018 z"
       id="google-g"
       inkscape:connector-curvature="0" />
    <path
       style="fill:#ffcc00;fill-opacity:1;stroke:none"
       d="m 193.17705,152.2629 0,-20.16156 -19.15348,0 -19.15348,0 0,-9.0727 0,-9.07271 19.15348,0 19.15348,0 0,-20.161561 0,-20.16156 9.0727,0 9.0727,0 0,20.16156 0,20.161561 20.16152,0 20.16156,0 0,9.07271 0,9.0727 -20.16156,0 -20.16152,0 0,20.16156 0,20.16156 -9.0727,0 -9.0727,0 0,-20.16156 z"
       id="google-plus"
       inkscape:connector-curvature="0" />
  </g>
   <g
     inkscape:label="Layer 1"
     inkscape:groupmode="layer"
     id="twitter"
     transform="translate(-262.32053,-396.30734)scale(1.1)">
    <path
       style="fill:#ffcc00"
       inkscape:connector-curvature="0"
       id="path5"
       d="m 453.82593,412.80619 c -6.3097,2.79897 -13.09189,4.68982 -20.20852,5.54049 7.26413,-4.35454 12.84406,-11.24992 15.47067,-19.46675 -6.79934,4.03295 -14.3293,6.96055 -22.34461,8.53841 -6.41775,-6.83879 -15.56243,-11.111 -25.68298,-11.111 -19.43159,0 -35.18696,15.75365 -35.18696,35.18525 0,2.75781 0.31128,5.44359 0.91155,8.01875 -29.24344,-1.46723 -55.16995,-15.47582 -72.52461,-36.76396 -3.02879,5.19662 -4.76443,11.24048 -4.76443,17.6891 0,12.20777 6.21194,22.97747 15.65332,29.28716 -5.76773,-0.18265 -11.19331,-1.76565 -15.93716,-4.40083 -0.004,0.14663 -0.004,0.29412 -0.004,0.44248 0,17.04767 12.12889,31.26806 28.22555,34.50266 -2.95247,0.80436 -6.06101,1.23398 -9.26989,1.23398 -2.2673,0 -4.47114,-0.22124 -6.62011,-0.63114 4.47801,13.97857 17.47214,24.15143 32.86992,24.43441 -12.04227,9.43796 -27.21366,15.06335 -43.69965,15.06335 -2.84014,0 -5.64082,-0.16722 -8.39349,-0.49223 15.57186,9.98421 34.06703,15.8094 53.93768,15.8094 64.72024,0 100.11301,-53.61524 100.11301,-100.11387 0,-1.52554 -0.0343,-3.04251 -0.10204,-4.55261 6.87394,-4.95995 12.83891,-11.15646 17.55618,-18.21305 z" />
  </g>
</svg>
